<svg width="36" height="32" viewBox="0 0 36 32" fill="none" xmlns="http://www.w3.org/2000/svg">
<path fill-rule="evenodd" clip-rule="evenodd" d="M16.2001 5.59998C13.5745 5.59998 11.0564 6.52713 9.19974 8.17745C7.34313 9.82777 6.3001 12.0661 6.3001 14.4C6.3001 16.7339 7.34313 18.9722 9.19974 20.6225C11.0564 22.2728 13.5745 23.2 16.2001 23.2C18.8257 23.2 21.3438 22.2728 23.2005 20.6225C25.0571 18.9722 26.1001 16.7339 26.1001 14.4C26.1001 12.0661 25.0571 9.82777 23.2005 8.17745C21.3438 6.52713 18.8257 5.59998 16.2001 5.59998ZM3.6001 14.4C3.60027 12.6091 4.0836 10.8443 5.00955 9.25368C5.9355 7.66309 7.27707 6.29307 8.92171 5.25854C10.5664 4.22401 12.4661 3.55514 14.4617 3.30804C16.4572 3.06095 18.4903 3.24282 20.3904 3.83842C22.2905 4.43402 24.0022 5.42596 25.382 6.73105C26.7617 8.03614 27.7693 9.61631 28.3201 11.339C28.8709 13.0617 28.9489 14.8767 28.5476 16.6318C28.1463 18.3868 27.2774 20.0307 26.0137 21.4256L32.0041 26.752C32.1367 26.8618 32.2431 26.9943 32.3169 27.1415C32.3907 27.2887 32.4304 27.4476 32.4336 27.6087C32.4368 27.7699 32.4034 27.9299 32.3355 28.0793C32.2676 28.2288 32.1666 28.3645 32.0384 28.4784C31.9102 28.5924 31.7575 28.6822 31.5894 28.7426C31.4213 28.8029 31.2412 28.8326 31.06 28.8297C30.8787 28.8269 30.6999 28.7916 30.5343 28.726C30.3687 28.6604 30.2197 28.5659 30.0961 28.448L24.1039 23.1232C22.2527 24.4486 20.0174 25.2815 17.6563 25.5257C15.2952 25.7699 12.9045 25.4154 10.7604 24.5032C8.61629 23.591 6.8062 22.1583 5.53919 20.3706C4.27218 18.5828 3.59994 16.5129 3.6001 14.4Z" fill="#57626B"/>
</svg>
