<svg width="18" height="19" viewBox="0 0 18 19" fill="none" xmlns="http://www.w3.org/2000/svg">
<g id="ic:baseline-tiktok">
<path id="Vector" d="M12.4906 5.05225C11.9816 4.49062 11.7011 3.76934 11.7013 3.02271H9.40056V11.9469C9.38282 12.4299 9.17188 12.8873 8.81217 13.2229C8.45247 13.5585 7.97206 13.7461 7.47211 13.7462C6.41481 13.7462 5.53621 12.9113 5.53621 11.875C5.53621 10.6371 6.77221 9.70869 8.04543 10.0901V7.81589C5.47665 7.48483 3.22803 9.41361 3.22803 11.875C3.22803 14.2716 5.28306 15.9773 7.46467 15.9773C9.80263 15.9773 11.7013 14.142 11.7013 11.875V7.34808C12.6343 7.9957 13.7544 8.34317 14.903 8.34127V6.1174C14.903 6.1174 13.5032 6.18218 12.4906 5.05225Z" fill="#353A49"/>
</g>
</svg>
