<svg width="37" height="32" viewBox="0 0 37 32" fill="none" xmlns="http://www.w3.org/2000/svg">
<path fill-rule="evenodd" clip-rule="evenodd" d="M18.5 0C13.5935 0 8.88795 1.68571 5.41852 4.68629C1.9491 7.68687 0 11.7565 0 16C0 20.2435 1.9491 24.3131 5.41852 27.3137C8.88795 30.3143 13.5935 32 18.5 32C23.4065 32 28.1121 30.3143 31.5815 27.3137C35.0509 24.3131 37 20.2435 37 16C37 11.7565 35.0509 7.68687 31.5815 4.68629C28.1121 1.68571 23.4065 0 18.5 0ZM2.46667 16C2.46671 13.706 3.12481 11.4478 4.38201 9.4278C5.63921 7.40782 7.45622 5.68914 9.67022 4.42579C11.8842 3.16244 14.426 2.39387 17.0679 2.18897C19.7098 1.98407 22.3692 2.34923 24.8077 3.25174C27.2463 4.15424 29.3879 5.56589 31.0406 7.36019C32.6933 9.15448 33.8055 11.2754 34.2775 13.5328C34.7494 15.7902 34.5665 18.1136 33.745 20.2949C32.9235 22.4761 31.4891 24.447 29.5704 26.0309C29.3863 24.1672 28.4 22.4312 26.8068 21.1663C25.2136 19.9013 23.1294 19.1996 20.9667 19.2H16.0333C13.8706 19.1996 11.7864 19.9013 10.1932 21.1663C8.59998 22.4312 7.61374 24.1672 7.4296 26.0309C5.859 24.7375 4.60908 23.1811 3.75588 21.4567C2.90269 19.7322 2.46406 17.8757 2.46667 16Z" fill="#57626B"/>
</svg>
