<svg width="37" height="32" viewBox="0 0 37 32" fill="none" xmlns="http://www.w3.org/2000/svg">
<path d="M18.4231 24C18.9627 24 19.419 23.8386 19.7921 23.516C20.1652 23.1933 20.3512 22.7991 20.3502 22.3333C20.3502 21.8666 20.1641 21.472 19.7921 21.1493C19.42 20.8266 18.9637 20.6657 18.4231 20.6666C17.8835 20.6666 17.4277 20.828 17.0556 21.1506C16.6836 21.4733 16.497 21.8675 16.496 22.3333C16.496 22.8 16.6825 23.1946 17.0556 23.5173C17.4287 23.84 17.8845 24.0008 18.4231 24ZM17.0356 18.8666H19.8877C19.8877 18.1333 19.9843 17.5555 20.1775 17.1333C20.3707 16.7111 20.9165 16.1333 21.8147 15.4C22.4828 14.8222 23.0095 14.272 23.395 13.7493C23.7804 13.2266 23.9731 12.5991 23.9731 11.8666C23.9731 10.6222 23.4463 9.66663 22.3929 8.99996C21.3394 8.33329 20.0932 7.99996 18.6543 7.99996C17.1897 7.99996 16.0011 8.33329 15.0885 8.99996C14.1758 9.66663 13.5401 10.4666 13.1814 11.4L15.7252 12.2666C15.8536 11.8666 16.143 11.4333 16.5931 10.9666C17.0433 10.5 17.7304 10.2666 18.6543 10.2666C19.4766 10.2666 20.0932 10.4613 20.5043 10.8506C20.9154 11.24 21.121 11.6675 21.121 12.1333C21.121 12.5777 20.9668 12.9946 20.6585 13.384C20.3502 13.7733 19.9647 14.1342 19.5022 14.4666C18.3717 15.3333 17.6779 15.9888 17.421 16.4333C17.1641 16.8777 17.0356 17.6888 17.0356 18.8666ZM18.5002 29.3333C16.3675 29.3333 14.3634 28.9831 12.4877 28.2826C10.612 27.5822 8.98037 26.6324 7.59287 25.4333C6.20537 24.2333 5.10719 22.8222 4.29833 21.2C3.48947 19.5777 3.08452 17.8444 3.0835 16C3.0835 14.1555 3.48844 12.4222 4.29833 10.8C5.10822 9.17774 6.2064 7.76663 7.59287 6.56663C8.98037 5.36663 10.612 4.41685 12.4877 3.71729C14.3634 3.01774 16.3675 2.66751 18.5002 2.66663C20.6328 2.66663 22.637 3.01685 24.5127 3.71729C26.3884 4.41774 28.02 5.36752 29.4075 6.56663C30.795 7.76663 31.8936 9.17774 32.7035 10.8C33.5134 12.4222 33.9179 14.1555 33.9168 16C33.9168 17.8444 33.5119 19.5777 32.702 21.2C31.8921 22.8222 30.7939 24.2333 29.4075 25.4333C28.02 26.6333 26.3884 27.5835 24.5127 28.284C22.637 28.9844 20.6328 29.3342 18.5002 29.3333Z" fill="#57626B"/>
</svg>
