<svg width="19" height="18" viewBox="0 0 19 18" fill="none" xmlns="http://www.w3.org/2000/svg">
<g id="mdi:instagram">
<path id="Vector" d="M6.31366 1.73486H12.5681C14.9507 1.73486 16.8866 3.60608 16.8866 5.90911V11.9546C16.8866 13.0616 16.4316 14.1234 15.6218 14.9062C14.8119 15.689 13.7134 16.1288 12.5681 16.1288H6.31366C3.93101 16.1288 1.99512 14.2576 1.99512 11.9546V5.90911C1.99512 4.80203 2.45011 3.74029 3.25999 2.95747C4.06987 2.17465 5.16831 1.73486 6.31366 1.73486ZM6.16474 3.17426C5.45384 3.17426 4.77205 3.44723 4.26936 3.93312C3.76668 4.41901 3.48427 5.07801 3.48427 5.76517V12.0985C3.48427 13.5307 4.68304 14.6894 6.16474 14.6894H12.717C13.4279 14.6894 14.1097 14.4164 14.6124 13.9306C15.1151 13.4447 15.3975 12.7857 15.3975 12.0985V5.76517C15.3975 4.33297 14.1987 3.17426 12.717 3.17426H6.16474ZM13.3499 4.2538C13.5967 4.2538 13.8335 4.34858 14.008 4.5173C14.1826 4.68601 14.2806 4.91483 14.2806 5.15342C14.2806 5.39202 14.1826 5.62084 14.008 5.78955C13.8335 5.95826 13.5967 6.05305 13.3499 6.05305C13.1031 6.05305 12.8663 5.95826 12.6918 5.78955C12.5172 5.62084 12.4192 5.39202 12.4192 5.15342C12.4192 4.91483 12.5172 4.68601 12.6918 4.5173C12.8663 4.34858 13.1031 4.2538 13.3499 4.2538ZM9.44088 5.33335C10.4282 5.33335 11.3752 5.71247 12.0733 6.38732C12.7715 7.06217 13.1638 7.97746 13.1638 8.93183C13.1638 9.88621 12.7715 10.8015 12.0733 11.4763C11.3752 12.1512 10.4282 12.5303 9.44088 12.5303C8.45351 12.5303 7.50658 12.1512 6.8084 11.4763C6.11023 10.8015 5.718 9.88621 5.718 8.93183C5.718 7.97746 6.11023 7.06217 6.8084 6.38732C7.50658 5.71247 8.45351 5.33335 9.44088 5.33335ZM9.44088 6.77274C8.84845 6.77274 8.2803 7.00022 7.86139 7.40513C7.44249 7.81003 7.20715 8.35921 7.20715 8.93183C7.20715 9.50446 7.44249 10.0536 7.86139 10.4585C8.2803 10.8634 8.84845 11.0909 9.44088 11.0909C10.0333 11.0909 10.6015 10.8634 11.0204 10.4585C11.4393 10.0536 11.6746 9.50446 11.6746 8.93183C11.6746 8.35921 11.4393 7.81003 11.0204 7.40513C10.6015 7.00022 10.0333 6.77274 9.44088 6.77274Z" fill="#353A49"/>
</g>
</svg>
