<svg width="23" height="19" viewBox="0 0 23 19" fill="none" xmlns="http://www.w3.org/2000/svg">
<g id="mdi:youtube">
<path id="Vector" d="M9.40524 12.1987L14.1391 9.93162L9.40524 7.66457V12.1987ZM19.9492 6.28168C20.0677 6.63685 20.1498 7.11293 20.2046 7.71747C20.2684 8.32202 20.2958 8.84344 20.2958 9.29685L20.3505 9.93162C20.3505 11.5866 20.2046 12.8032 19.9492 13.5816C19.7211 14.2617 19.1921 14.7 18.3712 14.8889C17.9425 14.9871 17.1581 15.0551 15.9542 15.1005C14.7684 15.1534 13.683 15.1761 12.6797 15.1761L11.2295 15.2214C7.40773 15.2214 5.02714 15.1005 4.08767 14.8889C3.26677 14.7 2.73775 14.2617 2.50972 13.5816C2.39115 13.2264 2.30906 12.7503 2.25434 12.1458C2.19049 11.5412 2.16312 11.0198 2.16312 10.5664L2.1084 9.93162C2.1084 8.27668 2.25434 7.06003 2.50972 6.28168C2.73775 5.60156 3.26677 5.16327 4.08767 4.97435C4.51636 4.87611 5.30077 4.8081 6.50475 4.76275C7.69048 4.70986 8.77589 4.68719 9.7792 4.68719L11.2295 4.64185C15.0512 4.64185 17.4318 4.76275 18.3712 4.97435C19.1921 5.16327 19.7211 5.60156 19.9492 6.28168Z" fill="#353A49"/>
</g>
</svg>
