<svg width="36" height="32" viewBox="0 0 36 32" fill="none" xmlns="http://www.w3.org/2000/svg">
<path d="M25.5 24C23.835 24 22.5 25.1866 22.5 26.6666C22.5 27.3739 22.8161 28.0521 23.3787 28.5522C23.9413 29.0523 24.7044 29.3333 25.5 29.3333C26.2956 29.3333 27.0587 29.0523 27.6213 28.5522C28.1839 28.0521 28.5 27.3739 28.5 26.6666C28.5 25.9594 28.1839 25.2811 27.6213 24.781C27.0587 24.2809 26.2956 24 25.5 24ZM1.5 2.66663V5.33329H4.5L9.9 15.4533L7.86 18.72C7.635 19.0933 7.5 19.5333 7.5 20C7.5 20.7072 7.81607 21.3855 8.37868 21.8856C8.94129 22.3857 9.70435 22.6666 10.5 22.6666H28.5V20H11.13C11.0305 20 10.9352 19.9648 10.8648 19.9023C10.7945 19.8398 10.755 19.755 10.755 19.6666C10.755 19.6 10.77 19.5466 10.8 19.5066L12.15 17.3333H23.325C24.45 17.3333 25.44 16.7733 25.95 15.96L31.32 7.33329C31.425 7.11996 31.5 6.89329 31.5 6.66663C31.5 6.313 31.342 5.97387 31.0607 5.72382C30.7794 5.47377 30.3978 5.33329 30 5.33329H7.815L6.405 2.66663M10.5 24C8.835 24 7.5 25.1866 7.5 26.6666C7.5 27.3739 7.81607 28.0521 8.37868 28.5522C8.94129 29.0523 9.70435 29.3333 10.5 29.3333C11.2956 29.3333 12.0587 29.0523 12.6213 28.5522C13.1839 28.0521 13.5 27.3739 13.5 26.6666C13.5 25.9594 13.1839 25.2811 12.6213 24.781C12.0587 24.2809 11.2956 24 10.5 24Z" fill="#57626B"/>
</svg>
