<svg width="37" height="34" viewBox="0 0 37 34" fill="none" xmlns="http://www.w3.org/2000/svg">
<path d="M10.0327 7.45314C10.154 7.58537 10.2502 7.74248 10.3159 7.91547C10.3816 8.08847 10.4154 8.27394 10.4154 8.46126C10.4154 8.64857 10.3816 8.83404 10.3159 9.00704C10.2502 9.18003 10.154 9.33715 10.0327 9.46937L4.44978 15.5762L20.3885 15.5762C20.7336 15.5762 21.0646 15.7261 21.3086 15.993C21.5526 16.2599 21.6897 16.6219 21.6897 16.9994C21.6897 17.3768 21.5526 17.7388 21.3086 18.0058C21.0646 18.2727 20.7336 18.4226 20.3885 18.4226H4.44978L10.0327 24.5318C10.2771 24.7991 10.4144 25.1618 10.4144 25.5399C10.4144 25.918 10.2771 26.2806 10.0327 26.548C9.78825 26.8154 9.45673 26.9656 9.11105 26.9656C8.76538 26.9656 8.43386 26.8154 8.18942 26.548L0.382689 18.0087C0.261389 17.8765 0.165145 17.7194 0.0994748 17.5464C0.0338045 17.3734 0 17.1879 0 17.0006C0 16.8133 0.0338045 16.6278 0.0994748 16.4548C0.165145 16.2818 0.261389 16.1247 0.382689 15.9925L8.18942 7.45314C8.3103 7.32046 8.45394 7.21519 8.61209 7.14335C8.77025 7.07152 8.93981 7.03454 9.11105 7.03454C9.2823 7.03454 9.45186 7.07152 9.61001 7.14335C9.76817 7.21519 9.9118 7.32046 10.0327 7.45314Z" fill="#57626B"/>
</svg>
