<svg width="18" height="16" viewBox="0 0 18 16" fill="none" xmlns="http://www.w3.org/2000/svg">
<path id="Vector" d="M17.8698 1.81686C17.2008 2.12472 16.4914 2.32696 15.765 2.4169C16.5303 1.94009 17.103 1.19013 17.3763 0.306722C16.6574 0.751738 15.8693 1.06361 15.0487 1.23232C14.497 0.618214 13.7656 0.210937 12.9684 0.0738042C12.1711 -0.0633286 11.3527 0.0773664 10.6402 0.474016C9.92781 0.870666 9.36131 1.50105 9.02881 2.26716C8.69632 3.03327 8.61646 3.89218 8.80166 4.71038C7.34372 4.6345 5.91742 4.24049 4.61538 3.55394C3.31335 2.86739 2.16468 1.90365 1.24398 0.725293C0.918117 1.30751 0.746874 1.96936 0.74779 2.64306C0.74779 3.96534 1.39564 5.13351 2.37838 5.81744C1.79629 5.79835 1.22701 5.63483 0.717984 5.34051V5.38702C0.717957 6.26782 1.01082 7.12151 1.54689 7.8033C2.08297 8.4851 2.82925 8.95302 3.65918 9.12771C3.11884 9.28019 2.55221 9.30264 2.00229 9.19337C2.23629 9.95153 2.69241 10.6146 3.30676 11.0896C3.92111 11.5646 4.66291 11.8279 5.42827 11.8425C4.66765 12.4639 3.79671 12.9233 2.86528 13.1943C1.93385 13.4653 0.960194 13.5427 0 13.4219C1.67593 14.543 3.62683 15.1382 5.61939 15.1363C12.3644 15.1363 16.0516 9.32468 16.0516 4.28451C16.0516 4.12036 16.0481 3.9544 16.0411 3.79116C16.7586 3.25163 17.3778 2.58247 17.8698 1.81686Z" fill="#353A49"/>
</svg>
