<svg width="19" height="18" viewBox="0 0 19 18" fill="none" xmlns="http://www.w3.org/2000/svg">
<g id="uil:facebook">
<path id="Vector" d="M16.0202 1.43945H2.76679C2.54957 1.43945 2.34124 1.52286 2.18764 1.67133C2.03404 1.81979 1.94775 2.02116 1.94775 2.23112V15.0417C1.94775 15.2517 2.03404 15.4531 2.18764 15.6015C2.34124 15.75 2.54957 15.8334 2.76679 15.8334H9.89982V10.2557H7.96393V8.09665H9.89982V6.47733C9.85972 6.09716 9.90616 5.71311 10.0359 5.35211C10.1656 4.99112 10.3754 4.66193 10.6507 4.38763C10.926 4.11333 11.26 3.90056 11.6293 3.76425C11.9987 3.62793 12.3944 3.57138 12.7888 3.59854C13.3683 3.5951 13.9475 3.62393 14.5236 3.68491V5.62809H13.3398C12.4016 5.62809 12.2229 6.05991 12.2229 6.68604V8.07506H14.4566L14.1662 10.2342H12.2229V15.8334H16.0202C16.1278 15.8334 16.2343 15.8129 16.3337 15.7731C16.433 15.7333 16.5233 15.675 16.5994 15.6015C16.6754 15.528 16.7358 15.4407 16.7769 15.3447C16.8181 15.2486 16.8393 15.1457 16.8393 15.0417V2.23112C16.8393 2.12716 16.8181 2.02421 16.7769 1.92816C16.7358 1.83211 16.6754 1.74484 16.5994 1.67133C16.5233 1.59781 16.433 1.5395 16.3337 1.49972C16.2343 1.45993 16.1278 1.43945 16.0202 1.43945Z" fill="#353A49"/>
</g>
</svg>
